<svg width="722" height="284" viewBox="0 0 722 284" fill="none" xmlns="http://www.w3.org/2000/svg">
<path d="M4.608 233.831L20.736 132.311H43.056L26.928 233.831H4.608ZM47.358 233.831L63.486 132.311H105.102C112.686 132.311 119.07 133.463 124.254 135.767C129.438 138.071 133.374 141.335 136.062 145.559C138.75 149.783 140.094 154.871 140.094 160.823C140.094 168.503 138.414 174.839 135.054 179.831C131.694 184.727 127.038 188.375 121.086 190.775C115.134 193.079 108.366 194.231 100.782 194.231V191.783H105.39C110.094 191.783 113.934 193.127 116.91 195.815C119.886 198.407 122.286 202.007 124.11 206.615L134.478 233.831H111.582L99.918 203.015C99.15 200.999 98.238 199.367 97.182 198.119C96.126 196.871 94.83 195.959 93.294 195.383C91.854 194.807 90.03 194.519 87.822 194.519H75.87L69.822 233.831H47.358ZM78.462 178.391H100.35C106.206 178.391 110.718 177.095 113.886 174.503C117.054 171.815 118.638 167.879 118.638 162.695C118.638 158.375 117.246 155.159 114.462 153.047C111.774 150.839 107.454 149.735 101.502 149.735H83.07L78.462 178.391ZM147.624 233.831L163.752 132.311H186.072L169.944 233.831H147.624ZM229.254 235.415C224.262 235.415 219.318 234.935 214.422 233.975C209.622 233.111 205.014 231.815 200.598 230.087C196.278 228.263 192.294 226.007 188.646 223.319L196.278 206.327C200.118 208.823 204.006 210.839 207.942 212.375C211.878 213.911 215.814 215.063 219.75 215.831C223.686 216.503 227.526 216.839 231.27 216.839C235.398 216.839 238.902 216.359 241.782 215.399C244.662 214.343 246.87 212.951 248.406 211.223C249.942 209.399 250.71 207.335 250.71 205.031C250.71 203.207 250.278 201.575 249.414 200.135C248.55 198.695 247.158 197.447 245.238 196.391C243.318 195.335 240.774 194.471 237.606 193.799L221.334 189.911C214.23 188.279 208.566 185.255 204.342 180.839C200.214 176.423 198.15 170.711 198.15 163.703C198.15 158.519 199.206 153.911 201.318 149.879C203.526 145.751 206.55 142.295 210.39 139.511C214.326 136.631 218.79 134.471 223.782 133.031C228.87 131.495 234.198 130.727 239.766 130.727C246.102 130.727 252.486 131.687 258.918 133.607C265.446 135.431 271.302 138.407 276.486 142.535L268.566 158.663C264.15 155.303 259.35 152.903 254.166 151.463C249.078 150.023 244.182 149.303 239.478 149.303C235.638 149.303 232.23 149.831 229.254 150.887C226.374 151.943 224.118 153.383 222.486 155.207C220.95 157.031 220.182 159.191 220.182 161.687C220.182 164.567 221.094 166.871 222.918 168.599C224.838 170.231 227.67 171.527 231.414 172.487L247.542 176.375C255.798 178.199 262.038 181.415 266.262 186.023C270.582 190.535 272.742 195.959 272.742 202.295C272.742 207.863 271.59 212.711 269.286 216.839C266.982 220.967 263.766 224.423 259.638 227.207C255.606 229.895 250.95 231.959 245.67 233.399C240.486 234.743 235.014 235.415 229.254 235.415Z" fill="white"/>
<path d="M1.152 276.831L5.184 251.451H10.764L6.732 276.831H1.152ZM11.3715 276.831L14.1795 259.155H19.5075L18.9675 262.503H18.7155C19.3155 261.303 20.1555 260.391 21.2355 259.767C22.3155 259.119 23.5875 258.795 25.0515 258.795C26.3475 258.795 27.4395 259.059 28.3275 259.587C29.2155 260.115 29.8395 260.931 30.1995 262.035C30.5835 263.139 30.6435 264.567 30.3795 266.319L28.7235 276.831H23.2875L24.9075 266.427C25.0275 265.659 25.0275 265.023 24.9075 264.519C24.8115 264.015 24.5835 263.643 24.2235 263.403C23.8635 263.139 23.3595 263.007 22.7115 263.007C21.8955 263.007 21.1755 263.187 20.5515 263.547C19.9515 263.883 19.4595 264.375 19.0755 265.023C18.7155 265.671 18.4635 266.463 18.3195 267.399L16.8075 276.831H11.3715ZM42.1057 277.227C40.1377 277.227 38.4937 276.891 37.1737 276.219C35.8777 275.523 34.9057 274.563 34.2577 273.339C33.6097 272.091 33.2857 270.663 33.2857 269.055C33.2857 267.735 33.4897 266.463 33.8977 265.239C34.3057 264.015 34.9297 262.923 35.7697 261.963C36.6337 260.979 37.7137 260.211 39.0097 259.659C40.3297 259.083 41.8657 258.795 43.6177 258.795C44.7937 258.795 45.9217 258.963 47.0017 259.299C48.1057 259.611 49.0177 260.055 49.7377 260.631L48.1177 264.375C47.6377 263.919 47.0257 263.571 46.2817 263.331C45.5377 263.067 44.7817 262.935 44.0137 262.935C43.0537 262.935 42.2377 263.115 41.5657 263.475C40.9177 263.811 40.3897 264.279 39.9817 264.879C39.5977 265.455 39.3097 266.103 39.1177 266.823C38.9257 267.519 38.8297 268.239 38.8297 268.983C38.8297 270.207 39.1417 271.191 39.7657 271.935C40.4137 272.679 41.4697 273.051 42.9337 273.051C43.5577 273.051 44.2297 272.931 44.9497 272.691C45.6697 272.451 46.3297 272.103 46.9297 271.647L48.0817 275.427C47.6257 275.811 47.0617 276.147 46.3897 276.435C45.7177 276.699 45.0097 276.891 44.2657 277.011C43.5217 277.155 42.8017 277.227 42.1057 277.227ZM53.1411 255.735L53.9691 250.659H59.8011L59.0091 255.735H53.1411ZM49.9731 276.831L52.7811 259.155H58.2171L55.4091 276.831H49.9731ZM66.6619 277.227C65.3419 277.227 64.1779 276.915 63.1699 276.291C62.1859 275.643 61.4179 274.755 60.8659 273.627C60.3379 272.475 60.0739 271.119 60.0739 269.559C60.0739 267.495 60.4339 265.659 61.1539 264.051C61.8739 262.419 62.8939 261.135 64.2139 260.199C65.5579 259.263 67.1299 258.795 68.9299 258.795C70.2499 258.795 71.4139 259.107 72.4219 259.731C73.4299 260.331 74.1379 261.219 74.5459 262.395L74.2579 262.359L75.9859 251.451H81.4219L77.3899 276.831H72.0619L72.5659 273.771H72.7459C72.3139 274.467 71.7859 275.079 71.1619 275.607C70.5619 276.135 69.8779 276.543 69.1099 276.831C68.3419 277.095 67.5259 277.227 66.6619 277.227ZM68.8579 273.159C69.8179 273.159 70.6339 272.883 71.3059 272.331C71.9779 271.755 72.4939 270.987 72.8539 270.027C73.2139 269.043 73.3939 267.939 73.3939 266.715C73.3939 265.467 73.0939 264.519 72.4939 263.871C71.9179 263.199 71.1139 262.863 70.0819 262.863C69.1219 262.863 68.3059 263.139 67.6339 263.691C66.9619 264.243 66.4459 265.011 66.0859 265.995C65.7259 266.955 65.5459 268.047 65.5459 269.271C65.5459 270.519 65.8339 271.479 66.4099 272.151C67.0099 272.823 67.8259 273.159 68.8579 273.159ZM91.1905 277.227C89.3425 277.227 87.7345 276.891 86.3665 276.219C84.9985 275.523 83.9425 274.563 83.1985 273.339C82.4545 272.115 82.0825 270.699 82.0825 269.091C82.0825 267.075 82.5145 265.299 83.3785 263.763C84.2425 262.227 85.4185 261.015 86.9065 260.127C88.4185 259.239 90.1225 258.795 92.0185 258.795C93.9865 258.795 95.5585 259.227 96.7345 260.091C97.9105 260.931 98.7265 262.071 99.1825 263.511C99.6385 264.927 99.7585 266.499 99.5425 268.227L99.3985 269.163H86.4745L86.8705 266.355H95.9065L95.3305 266.859C95.4505 265.995 95.4145 265.239 95.2225 264.591C95.0305 263.919 94.6705 263.391 94.1425 263.007C93.6145 262.599 92.8945 262.395 91.9825 262.395C91.0705 262.395 90.2905 262.611 89.6425 263.043C89.0185 263.451 88.5265 263.991 88.1665 264.663C87.8065 265.311 87.5545 266.031 87.4105 266.823L87.2305 268.083C87.0625 269.139 87.1225 270.051 87.4105 270.819C87.7225 271.563 88.2385 272.139 88.9585 272.547C89.7025 272.955 90.6265 273.159 91.7305 273.159C92.7385 273.159 93.7105 273.015 94.6465 272.727C95.6065 272.439 96.4585 272.019 97.2025 271.467L98.3905 275.031C97.5265 275.703 96.4585 276.243 95.1865 276.651C93.9145 277.035 92.5825 277.227 91.1905 277.227ZM101.336 276.831L104.144 259.155H109.472L108.932 262.503H108.68C109.28 261.303 110.12 260.391 111.2 259.767C112.28 259.119 113.552 258.795 115.016 258.795C116.312 258.795 117.404 259.059 118.292 259.587C119.18 260.115 119.804 260.931 120.164 262.035C120.548 263.139 120.608 264.567 120.344 266.319L118.688 276.831H113.252L114.872 266.427C114.992 265.659 114.992 265.023 114.872 264.519C114.776 264.015 114.548 263.643 114.188 263.403C113.828 263.139 113.324 263.007 112.676 263.007C111.86 263.007 111.14 263.187 110.516 263.547C109.916 263.883 109.424 264.375 109.04 265.023C108.68 265.671 108.428 266.463 108.284 267.399L106.772 276.831H101.336ZM131.783 277.227C130.079 277.227 128.687 276.915 127.607 276.291C126.551 275.667 125.807 274.815 125.375 273.735C124.943 272.631 124.847 271.371 125.087 269.955L126.167 263.223H122.819L123.431 259.155H126.779L127.607 253.971H133.043L132.215 259.155H137.471L136.823 263.223H131.603L130.559 269.667C130.391 270.795 130.535 271.599 130.991 272.079C131.471 272.559 132.179 272.799 133.115 272.799C133.451 272.799 133.775 272.775 134.087 272.727C134.423 272.655 134.747 272.571 135.059 272.475L135.311 276.507C134.855 276.723 134.303 276.891 133.655 277.011C133.007 277.155 132.383 277.227 131.783 277.227ZM147.789 276.831L151.821 251.451H162.225C164.121 251.451 165.717 251.739 167.013 252.315C168.309 252.891 169.293 253.707 169.965 254.763C170.637 255.819 170.973 257.091 170.973 258.579C170.973 260.499 170.553 262.083 169.713 263.331C168.873 264.555 167.709 265.467 166.221 266.067C164.733 266.643 163.041 266.931 161.145 266.931V266.319H162.297C163.473 266.319 164.433 266.655 165.177 267.327C165.921 267.975 166.521 268.875 166.977 270.027L169.569 276.831H163.845L160.929 269.127C160.737 268.623 160.509 268.215 160.245 267.903C159.981 267.591 159.657 267.363 159.273 267.219C158.913 267.075 158.457 267.003 157.905 267.003H154.917L153.405 276.831H147.789ZM155.565 262.971H161.037C162.501 262.971 163.629 262.647 164.421 261.999C165.213 261.327 165.609 260.343 165.609 259.047C165.609 257.967 165.261 257.163 164.565 256.635C163.893 256.083 162.813 255.807 161.325 255.807H156.717L155.565 262.971ZM181.507 277.227C179.659 277.227 178.051 276.891 176.683 276.219C175.315 275.523 174.259 274.563 173.515 273.339C172.771 272.115 172.399 270.699 172.399 269.091C172.399 267.075 172.831 265.299 173.695 263.763C174.559 262.227 175.735 261.015 177.223 260.127C178.735 259.239 180.439 258.795 182.335 258.795C184.303 258.795 185.875 259.227 187.051 260.091C188.227 260.931 189.043 262.071 189.499 263.511C189.955 264.927 190.075 266.499 189.859 268.227L189.715 269.163H176.791L177.187 266.355H186.223L185.647 266.859C185.767 265.995 185.731 265.239 185.539 264.591C185.347 263.919 184.987 263.391 184.459 263.007C183.931 262.599 183.211 262.395 182.299 262.395C181.387 262.395 180.607 262.611 179.959 263.043C179.335 263.451 178.843 263.991 178.483 264.663C178.123 265.311 177.871 266.031 177.727 266.823L177.547 268.083C177.379 269.139 177.439 270.051 177.727 270.819C178.039 271.563 178.555 272.139 179.275 272.547C180.019 272.955 180.943 273.159 182.047 273.159C183.055 273.159 184.027 273.015 184.963 272.727C185.923 272.439 186.775 272.019 187.519 271.467L188.707 275.031C187.843 275.703 186.775 276.243 185.503 276.651C184.231 277.035 182.899 277.227 181.507 277.227ZM190.645 283.311L194.461 259.155H199.789L199.321 262.251H199.069C199.501 261.507 200.017 260.883 200.617 260.379C201.241 259.851 201.937 259.455 202.705 259.191C203.497 258.927 204.325 258.795 205.189 258.795C206.509 258.795 207.661 259.107 208.645 259.731C209.653 260.331 210.421 261.207 210.949 262.359C211.501 263.511 211.777 264.867 211.777 266.427C211.777 268.467 211.417 270.303 210.697 271.935C209.977 273.567 208.945 274.863 207.601 275.823C206.281 276.759 204.709 277.227 202.885 277.227C201.565 277.227 200.401 276.927 199.393 276.327C198.409 275.703 197.713 274.803 197.305 273.627H197.629L196.081 283.311H190.645ZM201.769 273.159C202.729 273.159 203.545 272.883 204.217 272.331C204.889 271.755 205.405 270.987 205.765 270.027C206.125 269.043 206.305 267.939 206.305 266.715C206.305 265.467 206.005 264.519 205.405 263.871C204.829 263.199 204.025 262.863 202.993 262.863C202.033 262.863 201.217 263.139 200.545 263.691C199.873 264.243 199.357 265.011 198.997 265.995C198.637 266.955 198.457 268.047 198.457 269.271C198.457 270.519 198.745 271.479 199.321 272.151C199.921 272.823 200.737 273.159 201.769 273.159ZM222.805 277.227C220.981 277.227 219.421 276.891 218.125 276.219C216.829 275.547 215.833 274.599 215.137 273.375C214.465 272.151 214.129 270.723 214.129 269.091C214.129 267.459 214.393 266.007 214.921 264.735C215.473 263.439 216.217 262.359 217.153 261.495C218.113 260.607 219.193 259.935 220.393 259.479C221.617 259.023 222.901 258.795 224.245 258.795C226.069 258.795 227.629 259.131 228.925 259.803C230.221 260.451 231.217 261.387 231.913 262.611C232.609 263.835 232.957 265.263 232.957 266.895C232.957 268.551 232.681 270.015 232.129 271.287C231.577 272.559 230.821 273.639 229.861 274.527C228.925 275.415 227.845 276.087 226.621 276.543C225.421 276.999 224.149 277.227 222.805 277.227ZM222.949 273.159C223.909 273.159 224.713 272.883 225.361 272.331C226.033 271.755 226.549 270.987 226.909 270.027C227.293 269.043 227.485 267.939 227.485 266.715C227.485 265.467 227.185 264.519 226.585 263.871C225.985 263.199 225.169 262.863 224.137 262.863C223.201 262.863 222.385 263.139 221.689 263.691C221.017 264.243 220.501 265.011 220.141 265.995C219.781 266.955 219.601 268.047 219.601 269.271C219.601 270.519 219.889 271.479 220.465 272.151C221.065 272.823 221.893 273.159 222.949 273.159ZM234.825 276.831L237.633 259.155H242.961L242.241 263.475H241.917C242.349 262.131 243.093 261.039 244.149 260.199C245.229 259.359 246.561 258.891 248.145 258.795L249.801 258.687L249.621 263.259L246.165 263.619C245.205 263.715 244.425 263.931 243.825 264.267C243.225 264.603 242.769 265.083 242.457 265.707C242.145 266.307 241.917 267.063 241.773 267.975L240.369 276.831H234.825ZM259.751 277.227C258.047 277.227 256.655 276.915 255.575 276.291C254.519 275.667 253.775 274.815 253.343 273.735C252.911 272.631 252.815 271.371 253.055 269.955L254.135 263.223H250.787L251.399 259.155H254.747L255.575 253.971H261.011L260.183 259.155H265.439L264.791 263.223H259.571L258.527 269.667C258.359 270.795 258.503 271.599 258.959 272.079C259.439 272.559 260.147 272.799 261.083 272.799C261.419 272.799 261.743 272.775 262.055 272.727C262.391 272.655 262.715 272.571 263.027 272.475L263.279 276.507C262.823 276.723 262.271 276.891 261.623 277.011C260.975 277.155 260.351 277.227 259.751 277.227ZM268.438 255.735L269.266 250.659H275.098L274.306 255.735H268.438ZM265.27 276.831L268.078 259.155H273.514L270.706 276.831H265.27ZM274.903 276.831L277.711 259.155H283.039L282.499 262.503H282.247C282.847 261.303 283.687 260.391 284.767 259.767C285.847 259.119 287.119 258.795 288.583 258.795C289.879 258.795 290.971 259.059 291.859 259.587C292.747 260.115 293.371 260.931 293.731 262.035C294.115 263.139 294.175 264.567 293.911 266.319L292.255 276.831H286.819L288.439 266.427C288.559 265.659 288.559 265.023 288.439 264.519C288.343 264.015 288.115 263.643 287.755 263.403C287.395 263.139 286.891 263.007 286.243 263.007C285.427 263.007 284.707 263.187 284.083 263.547C283.483 263.883 282.991 264.375 282.607 265.023C282.247 265.671 281.995 266.463 281.851 267.399L280.339 276.831H274.903ZM304.989 283.707C303.213 283.707 301.581 283.503 300.093 283.095C298.629 282.687 297.285 282.087 296.061 281.295L297.681 277.587C298.353 277.995 299.037 278.355 299.733 278.667C300.453 278.979 301.173 279.219 301.893 279.387C302.637 279.555 303.405 279.639 304.197 279.639C305.565 279.639 306.669 279.351 307.509 278.775C308.373 278.199 308.913 277.251 309.129 275.931L309.633 272.943L309.921 272.979C309.561 273.723 309.069 274.359 308.445 274.887C307.821 275.391 307.125 275.775 306.357 276.039C305.589 276.279 304.773 276.399 303.909 276.399C302.493 276.399 301.245 276.111 300.165 275.535C299.109 274.959 298.281 274.131 297.681 273.051C297.105 271.947 296.817 270.639 296.817 269.127C296.817 267.735 297.033 266.415 297.465 265.167C297.897 263.895 298.497 262.791 299.265 261.855C300.057 260.895 301.005 260.151 302.109 259.623C303.237 259.071 304.473 258.795 305.817 258.795C307.185 258.795 308.373 259.107 309.381 259.731C310.389 260.331 311.097 261.219 311.505 262.395L311.217 262.287L311.721 259.155H317.049L314.421 275.643C314.157 277.347 313.629 278.799 312.837 279.999C312.069 281.199 311.025 282.111 309.705 282.735C308.409 283.383 306.837 283.707 304.989 283.707ZM305.673 272.331C306.657 272.331 307.497 272.055 308.193 271.503C308.889 270.951 309.417 270.231 309.777 269.343C310.161 268.431 310.353 267.447 310.353 266.391C310.377 265.311 310.077 264.459 309.453 263.835C308.853 263.187 308.001 262.863 306.897 262.863C305.937 262.863 305.109 263.139 304.413 263.691C303.717 264.219 303.189 264.939 302.829 265.851C302.469 266.739 302.289 267.723 302.289 268.803C302.265 269.883 302.541 270.747 303.117 271.395C303.717 272.019 304.569 272.331 305.673 272.331ZM337.697 277.227C335.993 277.227 334.517 276.963 333.269 276.435C332.021 275.907 331.049 275.175 330.353 274.239C329.681 273.303 329.345 272.223 329.345 270.999C329.345 270.063 329.501 269.199 329.813 268.407C330.125 267.615 330.569 266.883 331.145 266.211C331.721 265.539 332.381 264.915 333.125 264.339C333.893 263.763 334.721 263.259 335.609 262.827L336.941 262.107L335.969 263.223C335.513 262.695 335.129 262.155 334.817 261.603C334.505 261.027 334.277 260.451 334.133 259.875C334.013 259.299 333.953 258.735 333.953 258.183C333.953 256.743 334.301 255.495 334.997 254.439C335.717 253.359 336.689 252.531 337.913 251.955C339.137 251.355 340.517 251.055 342.053 251.055C343.301 251.055 344.393 251.283 345.329 251.739C346.265 252.171 346.985 252.783 347.489 253.575C348.017 254.367 348.281 255.279 348.281 256.311C348.281 257.463 347.969 258.507 347.345 259.443C346.745 260.379 345.953 261.219 344.969 261.963C344.009 262.683 342.989 263.319 341.909 263.871V262.719L346.733 268.623H345.761C346.505 267.639 347.129 266.535 347.633 265.311C348.161 264.063 348.581 262.755 348.893 261.387H353.357C353.045 263.331 352.469 265.191 351.629 266.967C350.813 268.743 349.805 270.315 348.605 271.683V270.423L354.149 276.831H347.921L345.401 273.771L346.265 273.843C345.113 274.899 343.817 275.727 342.377 276.327C340.961 276.927 339.401 277.227 337.697 277.227ZM338.525 273.015C339.581 273.015 340.517 272.823 341.333 272.439C342.173 272.055 342.989 271.491 343.781 270.747L343.601 272.043L337.481 264.771L339.605 264.987L338.525 265.527C337.853 265.887 337.229 266.295 336.653 266.751C336.077 267.183 335.609 267.687 335.249 268.263C334.913 268.815 334.745 269.463 334.745 270.207C334.745 271.047 335.057 271.731 335.681 272.259C336.329 272.763 337.277 273.015 338.525 273.015ZM341.873 254.763C340.961 254.763 340.241 255.039 339.713 255.591C339.185 256.143 338.921 256.887 338.921 257.823C338.921 258.159 338.969 258.495 339.065 258.831C339.161 259.143 339.317 259.479 339.533 259.839C339.749 260.199 340.061 260.631 340.469 261.135L339.497 260.919C340.481 260.583 341.297 260.199 341.945 259.767C342.593 259.311 343.085 258.819 343.421 258.291C343.757 257.739 343.925 257.163 343.925 256.563C343.925 255.987 343.745 255.543 343.385 255.231C343.049 254.919 342.545 254.763 341.873 254.763ZM365.793 276.831L369.825 251.451H375.405L371.373 276.831H365.793ZM376.012 276.831L378.82 259.155H384.148L383.608 262.503H383.356C383.956 261.303 384.796 260.391 385.876 259.767C386.956 259.119 388.228 258.795 389.692 258.795C390.988 258.795 392.08 259.059 392.968 259.587C393.856 260.115 394.48 260.931 394.84 262.035C395.224 263.139 395.284 264.567 395.02 266.319L393.364 276.831H387.928L389.548 266.427C389.668 265.659 389.668 265.023 389.548 264.519C389.452 264.015 389.224 263.643 388.864 263.403C388.504 263.139 388 263.007 387.352 263.007C386.536 263.007 385.816 263.187 385.192 263.547C384.592 263.883 384.1 264.375 383.716 265.023C383.356 265.671 383.104 266.463 382.96 267.399L381.448 276.831H376.012ZM402.431 276.831L397.571 259.155H403.043L405.995 271.827H404.879L412.007 259.155H417.623L407.039 276.831H402.431ZM425.667 277.227C423.819 277.227 422.211 276.891 420.843 276.219C419.475 275.523 418.419 274.563 417.675 273.339C416.931 272.115 416.559 270.699 416.559 269.091C416.559 267.075 416.991 265.299 417.855 263.763C418.719 262.227 419.895 261.015 421.383 260.127C422.895 259.239 424.599 258.795 426.495 258.795C428.463 258.795 430.035 259.227 431.211 260.091C432.387 260.931 433.203 262.071 433.659 263.511C434.115 264.927 434.235 266.499 434.019 268.227L433.875 269.163H420.951L421.347 266.355H430.383L429.807 266.859C429.927 265.995 429.891 265.239 429.699 264.591C429.507 263.919 429.147 263.391 428.619 263.007C428.091 262.599 427.371 262.395 426.459 262.395C425.547 262.395 424.767 262.611 424.119 263.043C423.495 263.451 423.003 263.991 422.643 264.663C422.283 265.311 422.031 266.031 421.887 266.823L421.707 268.083C421.539 269.139 421.599 270.051 421.887 270.819C422.199 271.563 422.715 272.139 423.435 272.547C424.179 272.955 425.103 273.159 426.207 273.159C427.215 273.159 428.187 273.015 429.123 272.727C430.083 272.439 430.935 272.019 431.679 271.467L432.867 275.031C432.003 275.703 430.935 276.243 429.663 276.651C428.391 277.035 427.059 277.227 425.667 277.227ZM443.337 277.227C441.801 277.227 440.349 277.047 438.981 276.687C437.613 276.327 436.461 275.811 435.525 275.139L437.109 271.647C437.685 272.031 438.321 272.367 439.017 272.655C439.713 272.919 440.421 273.123 441.141 273.267C441.885 273.411 442.605 273.483 443.301 273.483C444.333 273.483 445.101 273.303 445.605 272.943C446.133 272.583 446.397 272.127 446.397 271.575C446.397 271.167 446.253 270.843 445.965 270.603C445.701 270.363 445.281 270.183 444.705 270.063L441.429 269.451C440.037 269.211 438.945 268.695 438.153 267.903C437.385 267.087 437.001 266.067 437.001 264.843C437.001 263.763 437.313 262.767 437.937 261.855C438.585 260.919 439.533 260.175 440.781 259.623C442.029 259.071 443.565 258.795 445.389 258.795C446.133 258.795 446.901 258.867 447.693 259.011C448.485 259.155 449.241 259.371 449.961 259.659C450.705 259.947 451.365 260.307 451.941 260.739L450.429 264.159C449.661 263.607 448.809 263.199 447.873 262.935C446.937 262.647 446.013 262.503 445.101 262.503C444.021 262.503 443.205 262.695 442.653 263.079C442.125 263.463 441.861 263.955 441.861 264.555C441.861 264.891 441.969 265.191 442.185 265.455C442.425 265.695 442.809 265.863 443.337 265.959L446.577 266.571C448.113 266.859 449.277 267.399 450.069 268.191C450.861 268.959 451.257 269.955 451.257 271.179C451.257 272.475 450.921 273.579 450.249 274.491C449.601 275.379 448.677 276.063 447.477 276.543C446.301 276.999 444.921 277.227 443.337 277.227ZM462.392 277.227C460.688 277.227 459.296 276.915 458.216 276.291C457.16 275.667 456.416 274.815 455.984 273.735C455.552 272.631 455.456 271.371 455.696 269.955L456.776 263.223H453.428L454.04 259.155H457.388L458.216 253.971H463.652L462.824 259.155H468.08L467.432 263.223H462.212L461.168 269.667C461 270.795 461.144 271.599 461.6 272.079C462.08 272.559 462.788 272.799 463.724 272.799C464.06 272.799 464.384 272.775 464.696 272.727C465.032 272.655 465.356 272.571 465.668 272.475L465.92 276.507C465.464 276.723 464.912 276.891 464.264 277.011C463.616 277.155 462.992 277.227 462.392 277.227ZM471.079 255.735L471.907 250.659H477.739L476.947 255.735H471.079ZM467.911 276.831L470.719 259.155H476.155L473.347 276.831H467.911ZM486.219 283.707C484.443 283.707 482.811 283.503 481.323 283.095C479.859 282.687 478.515 282.087 477.291 281.295L478.911 277.587C479.583 277.995 480.267 278.355 480.963 278.667C481.683 278.979 482.403 279.219 483.123 279.387C483.867 279.555 484.635 279.639 485.427 279.639C486.795 279.639 487.899 279.351 488.739 278.775C489.603 278.199 490.143 277.251 490.359 275.931L490.863 272.943L491.151 272.979C490.791 273.723 490.299 274.359 489.675 274.887C489.051 275.391 488.355 275.775 487.587 276.039C486.819 276.279 486.003 276.399 485.139 276.399C483.723 276.399 482.475 276.111 481.395 275.535C480.339 274.959 479.511 274.131 478.911 273.051C478.335 271.947 478.047 270.639 478.047 269.127C478.047 267.735 478.263 266.415 478.695 265.167C479.127 263.895 479.727 262.791 480.495 261.855C481.287 260.895 482.235 260.151 483.339 259.623C484.467 259.071 485.703 258.795 487.047 258.795C488.415 258.795 489.603 259.107 490.611 259.731C491.619 260.331 492.327 261.219 492.735 262.395L492.447 262.287L492.951 259.155H498.279L495.651 275.643C495.387 277.347 494.859 278.799 494.067 279.999C493.299 281.199 492.255 282.111 490.935 282.735C489.639 283.383 488.067 283.707 486.219 283.707ZM486.903 272.331C487.887 272.331 488.727 272.055 489.423 271.503C490.119 270.951 490.647 270.231 491.007 269.343C491.391 268.431 491.583 267.447 491.583 266.391C491.607 265.311 491.307 264.459 490.683 263.835C490.083 263.187 489.231 262.863 488.127 262.863C487.167 262.863 486.339 263.139 485.643 263.691C484.947 264.219 484.419 264.939 484.059 265.851C483.699 266.739 483.519 267.723 483.519 268.803C483.495 269.883 483.771 270.747 484.347 271.395C484.947 272.019 485.799 272.331 486.903 272.331ZM505.812 277.227C504.708 277.227 503.7 276.975 502.788 276.471C501.9 275.943 501.18 275.259 500.628 274.419C500.1 273.579 499.836 272.667 499.836 271.683C499.836 270.435 500.184 269.415 500.88 268.623C501.576 267.831 502.656 267.255 504.12 266.895C505.584 266.511 507.456 266.319 509.736 266.319H512.58L512.148 269.127H509.844C508.668 269.127 507.732 269.199 507.036 269.343C506.34 269.463 505.836 269.691 505.524 270.027C505.212 270.339 505.056 270.771 505.056 271.323C505.056 272.043 505.296 272.607 505.776 273.015C506.28 273.399 506.904 273.591 507.648 273.591C508.344 273.591 508.956 273.447 509.484 273.159C510.036 272.871 510.492 272.463 510.852 271.935C511.236 271.407 511.476 270.783 511.572 270.063L512.256 265.851C512.424 264.867 512.244 264.111 511.716 263.583C511.212 263.055 510.348 262.791 509.124 262.791C508.068 262.791 507.036 262.935 506.028 263.223C505.02 263.511 504.012 263.955 503.004 264.555L501.888 260.883C502.512 260.451 503.256 260.079 504.12 259.767C504.984 259.455 505.908 259.215 506.892 259.047C507.9 258.879 508.896 258.795 509.88 258.795C511.896 258.795 513.48 259.167 514.632 259.911C515.784 260.655 516.564 261.663 516.972 262.935C517.38 264.183 517.452 265.587 517.188 267.147L515.676 276.831H510.6L511.176 273.231H511.5C511.14 274.143 510.66 274.899 510.06 275.499C509.484 276.099 508.836 276.543 508.116 276.831C507.396 277.095 506.628 277.227 505.812 277.227ZM528.767 277.227C527.063 277.227 525.671 276.915 524.591 276.291C523.535 275.667 522.791 274.815 522.359 273.735C521.927 272.631 521.831 271.371 522.071 269.955L523.151 263.223H519.803L520.415 259.155H523.763L524.591 253.971H530.027L529.199 259.155H534.455L533.807 263.223H528.587L527.543 269.667C527.375 270.795 527.519 271.599 527.975 272.079C528.455 272.559 529.163 272.799 530.099 272.799C530.435 272.799 530.759 272.775 531.071 272.727C531.407 272.655 531.731 272.571 532.043 272.475L532.295 276.507C531.839 276.723 531.287 276.891 530.639 277.011C529.991 277.155 529.367 277.227 528.767 277.227ZM537.454 255.735L538.282 250.659H544.114L543.322 255.735H537.454ZM534.286 276.831L537.094 259.155H542.53L539.722 276.831H534.286ZM553.098 277.227C551.274 277.227 549.714 276.891 548.418 276.219C547.122 275.547 546.126 274.599 545.43 273.375C544.758 272.151 544.422 270.723 544.422 269.091C544.422 267.459 544.686 266.007 545.214 264.735C545.766 263.439 546.51 262.359 547.446 261.495C548.406 260.607 549.486 259.935 550.686 259.479C551.91 259.023 553.194 258.795 554.538 258.795C556.362 258.795 557.922 259.131 559.218 259.803C560.514 260.451 561.51 261.387 562.206 262.611C562.902 263.835 563.25 265.263 563.25 266.895C563.25 268.551 562.974 270.015 562.422 271.287C561.87 272.559 561.114 273.639 560.154 274.527C559.218 275.415 558.138 276.087 556.914 276.543C555.714 276.999 554.442 277.227 553.098 277.227ZM553.242 273.159C554.202 273.159 555.006 272.883 555.654 272.331C556.326 271.755 556.842 270.987 557.202 270.027C557.586 269.043 557.778 267.939 557.778 266.715C557.778 265.467 557.478 264.519 556.878 263.871C556.278 263.199 555.462 262.863 554.43 262.863C553.494 262.863 552.678 263.139 551.982 263.691C551.31 264.243 550.794 265.011 550.434 265.995C550.074 266.955 549.894 268.047 549.894 269.271C549.894 270.519 550.182 271.479 550.758 272.151C551.358 272.823 552.186 273.159 553.242 273.159ZM565.118 276.831L567.926 259.155H573.254L572.714 262.503H572.462C573.062 261.303 573.902 260.391 574.982 259.767C576.062 259.119 577.334 258.795 578.798 258.795C580.094 258.795 581.186 259.059 582.074 259.587C582.962 260.115 583.586 260.931 583.946 262.035C584.33 263.139 584.39 264.567 584.126 266.319L582.47 276.831H577.034L578.654 266.427C578.774 265.659 578.774 265.023 578.654 264.519C578.558 264.015 578.33 263.643 577.97 263.403C577.61 263.139 577.106 263.007 576.458 263.007C575.642 263.007 574.922 263.187 574.298 263.547C573.698 263.883 573.206 264.375 572.822 265.023C572.462 265.671 572.21 266.463 572.066 267.399L570.554 276.831H565.118ZM606.735 277.227C605.487 277.227 604.251 277.107 603.027 276.867C601.827 276.651 600.675 276.327 599.571 275.895C598.491 275.439 597.495 274.875 596.583 274.203L598.491 269.955C599.451 270.579 600.423 271.083 601.407 271.467C602.391 271.851 603.375 272.139 604.359 272.331C605.343 272.499 606.303 272.583 607.239 272.583C608.271 272.583 609.147 272.463 609.867 272.223C610.587 271.959 611.139 271.611 611.523 271.179C611.907 270.723 612.099 270.207 612.099 269.631C612.099 269.175 611.991 268.767 611.775 268.407C611.559 268.047 611.211 267.735 610.731 267.471C610.251 267.207 609.615 266.991 608.823 266.823L604.755 265.851C602.979 265.443 601.563 264.687 600.507 263.583C599.475 262.479 598.959 261.051 598.959 259.299C598.959 258.003 599.223 256.851 599.751 255.843C600.303 254.811 601.059 253.947 602.019 253.251C603.003 252.531 604.119 251.991 605.367 251.631C606.639 251.247 607.971 251.055 609.363 251.055C610.947 251.055 612.543 251.295 614.151 251.775C615.783 252.231 617.247 252.975 618.543 254.007L616.563 258.039C615.459 257.199 614.259 256.599 612.963 256.239C611.691 255.879 610.467 255.699 609.291 255.699C608.331 255.699 607.479 255.831 606.735 256.095C606.015 256.359 605.451 256.719 605.043 257.175C604.659 257.631 604.467 258.171 604.467 258.795C604.467 259.515 604.695 260.091 605.151 260.523C605.631 260.931 606.339 261.255 607.275 261.495L611.307 262.467C613.371 262.923 614.931 263.727 615.987 264.879C617.067 266.007 617.607 267.363 617.607 268.947C617.607 270.339 617.319 271.551 616.743 272.583C616.167 273.615 615.363 274.479 614.331 275.175C613.323 275.847 612.159 276.363 610.839 276.723C609.543 277.059 608.175 277.227 606.735 277.227ZM619.617 283.311L624.873 274.779L624.513 277.011L619.581 259.155H625.053L628.041 271.827H626.853L634.053 259.155H639.669L625.161 283.311H619.617ZM645.661 277.227C644.125 277.227 642.673 277.047 641.305 276.687C639.937 276.327 638.785 275.811 637.849 275.139L639.433 271.647C640.009 272.031 640.645 272.367 641.341 272.655C642.037 272.919 642.745 273.123 643.465 273.267C644.209 273.411 644.929 273.483 645.625 273.483C646.657 273.483 647.425 273.303 647.929 272.943C648.457 272.583 648.721 272.127 648.721 271.575C648.721 271.167 648.577 270.843 648.289 270.603C648.025 270.363 647.605 270.183 647.029 270.063L643.753 269.451C642.361 269.211 641.269 268.695 640.477 267.903C639.709 267.087 639.325 266.067 639.325 264.843C639.325 263.763 639.637 262.767 640.261 261.855C640.909 260.919 641.857 260.175 643.105 259.623C644.353 259.071 645.889 258.795 647.713 258.795C648.457 258.795 649.225 258.867 650.017 259.011C650.809 259.155 651.565 259.371 652.285 259.659C653.029 259.947 653.689 260.307 654.265 260.739L652.753 264.159C651.985 263.607 651.133 263.199 650.197 262.935C649.261 262.647 648.337 262.503 647.425 262.503C646.345 262.503 645.529 262.695 644.977 263.079C644.449 263.463 644.185 263.955 644.185 264.555C644.185 264.891 644.293 265.191 644.509 265.455C644.749 265.695 645.133 265.863 645.661 265.959L648.901 266.571C650.437 266.859 651.601 267.399 652.393 268.191C653.185 268.959 653.581 269.955 653.581 271.179C653.581 272.475 653.245 273.579 652.573 274.491C651.925 275.379 651.001 276.063 649.801 276.543C648.625 276.999 647.245 277.227 645.661 277.227ZM664.716 277.227C663.012 277.227 661.62 276.915 660.54 276.291C659.484 275.667 658.74 274.815 658.308 273.735C657.876 272.631 657.78 271.371 658.02 269.955L659.1 263.223H655.752L656.364 259.155H659.712L660.54 253.971H665.976L665.148 259.155H670.404L669.756 263.223H664.536L663.492 269.667C663.324 270.795 663.468 271.599 663.924 272.079C664.404 272.559 665.112 272.799 666.048 272.799C666.384 272.799 666.708 272.775 667.02 272.727C667.356 272.655 667.68 272.571 667.992 272.475L668.244 276.507C667.788 276.723 667.236 276.891 666.588 277.011C665.94 277.155 665.316 277.227 664.716 277.227ZM679.671 277.227C677.823 277.227 676.215 276.891 674.847 276.219C673.479 275.523 672.423 274.563 671.679 273.339C670.935 272.115 670.563 270.699 670.563 269.091C670.563 267.075 670.995 265.299 671.859 263.763C672.723 262.227 673.899 261.015 675.387 260.127C676.899 259.239 678.603 258.795 680.499 258.795C682.467 258.795 684.039 259.227 685.215 260.091C686.391 260.931 687.207 262.071 687.663 263.511C688.119 264.927 688.239 266.499 688.023 268.227L687.879 269.163H674.955L675.351 266.355H684.387L683.811 266.859C683.931 265.995 683.895 265.239 683.703 264.591C683.511 263.919 683.151 263.391 682.623 263.007C682.095 262.599 681.375 262.395 680.463 262.395C679.551 262.395 678.771 262.611 678.123 263.043C677.499 263.451 677.007 263.991 676.647 264.663C676.287 265.311 676.035 266.031 675.891 266.823L675.711 268.083C675.543 269.139 675.603 270.051 675.891 270.819C676.203 271.563 676.719 272.139 677.439 272.547C678.183 272.955 679.107 273.159 680.211 273.159C681.219 273.159 682.191 273.015 683.127 272.727C684.087 272.439 684.939 272.019 685.683 271.467L686.871 275.031C686.007 275.703 684.939 276.243 683.667 276.651C682.395 277.035 681.063 277.227 679.671 277.227ZM689.889 276.831L692.697 259.155H698.025L697.449 262.647H697.089C697.785 261.303 698.673 260.331 699.753 259.731C700.833 259.107 701.973 258.795 703.173 258.795C704.493 258.795 705.585 259.143 706.449 259.839C707.313 260.511 707.913 261.519 708.249 262.863L707.745 262.611C708.393 261.339 709.257 260.391 710.337 259.767C711.441 259.119 712.713 258.795 714.153 258.795C715.401 258.795 716.457 259.059 717.321 259.587C718.185 260.091 718.797 260.907 719.157 262.035C719.541 263.139 719.589 264.567 719.301 266.319L717.645 276.831H712.209L713.865 266.355C713.985 265.611 713.985 264.987 713.865 264.483C713.769 263.979 713.553 263.607 713.217 263.367C712.905 263.127 712.461 263.007 711.885 263.007C711.213 263.007 710.601 263.187 710.049 263.547C709.521 263.883 709.077 264.375 708.717 265.023C708.381 265.671 708.141 266.463 707.997 267.399L706.485 276.831H701.049L702.705 266.355C702.849 265.611 702.861 264.987 702.741 264.483C702.621 263.979 702.393 263.607 702.057 263.367C701.745 263.127 701.301 263.007 700.725 263.007C700.221 263.007 699.753 263.103 699.321 263.295C698.889 263.487 698.505 263.775 698.169 264.159C697.857 264.519 697.581 264.975 697.341 265.527C697.101 266.055 696.933 266.679 696.837 267.399L695.325 276.831H689.889Z" fill="#E4D6D6"/>
<path d="M27.4781 108.635H31.1557L32.3193 103.038C32.66 101.408 32.9709 100.325 33.2405 99.7901C33.6208 99.0463 34.1302 98.4478 34.7899 97.9987C35.4512 97.5458 36.0447 97.317 36.5817 97.317C37.0792 97.317 37.4655 97.4502 37.7448 97.7176C38.0177 97.99 38.162 98.3581 38.162 98.8343C38.162 99.0545 38.0394 99.746 37.7964 100.899L36.1901 108.635H39.8611L41.4647 100.924C41.7474 99.5878 41.889 98.6799 41.889 98.202C41.889 97.1424 41.5673 96.2878 40.9249 95.6501C40.2729 95.0026 39.3962 94.6829 38.2781 94.6829C37.4362 94.6829 36.6425 94.8444 35.8852 95.1657C35.1333 95.487 34.3174 96.0252 33.4472 96.7771L33.8063 95.0026H30.3241L27.4781 108.635Z" fill="#231F20"/>
<path d="M23.8711 108.635L27.7863 89.8248H23.9313L20.0004 108.635H23.8711Z" fill="#231F20"/>
<path d="M46.1514 97.7409L45.0117 103.223C44.6992 104.732 44.5391 105.704 44.5391 106.118C44.5391 107.011 44.8343 107.703 45.4196 108.209C46.0136 108.705 46.9543 108.958 48.252 108.958C48.9209 108.958 49.5659 108.896 50.2001 108.766L50.7713 106.034C50.1296 106.089 49.7216 106.118 49.5572 106.118C49.0869 106.118 48.763 106.044 48.5834 105.879C48.4066 105.724 48.3165 105.506 48.3165 105.22C48.3165 105.077 48.4234 104.488 48.635 103.452L49.8263 97.7409H52.0815L52.6473 95.0025H50.4051L51.3909 90.2824L47.1757 92.8241L46.7297 95.0025H44.9379L44.3721 97.7409H46.1514Z" fill="#231F20"/>
<path d="M57.8008 98.1784C58.404 97.6032 59.0816 97.3172 59.8427 97.3172C60.6044 97.3172 61.2082 97.5727 61.6617 98.074C62.1179 98.5769 62.3431 99.3358 62.3431 100.346C62.3431 100.432 62.3387 100.554 62.3268 100.722H56.5791C56.7912 99.5946 57.1953 98.7503 57.8008 98.1784ZM65.4266 102.966C65.597 102.254 65.687 101.452 65.687 100.563C65.687 98.7068 65.1922 97.2634 64.2087 96.2337C63.2252 95.2024 61.9053 94.6827 60.242 94.6827C57.6304 94.6827 55.6123 95.6683 54.2051 97.6385C53.1771 99.0901 52.6536 100.75 52.6536 102.617C52.6536 104.525 53.2292 106.058 54.3733 107.217C55.5158 108.377 57.0065 108.958 58.8315 108.958C60.1644 108.958 61.366 108.628 62.4364 107.964C63.5051 107.301 64.359 106.303 65.0051 104.978L61.7127 104.423C61.0286 105.691 60.0803 106.325 58.8565 106.325C58.1143 106.325 57.485 106.046 56.9669 105.496C56.4537 104.939 56.1901 104.204 56.1901 103.296C56.1901 103.223 56.1999 103.109 56.2064 102.966H65.4266Z" fill="#231F20"/>
<path d="M66.5662 108.635H70.2416L71.1411 104.364C71.4948 102.626 71.8604 101.354 72.2272 100.554C72.5939 99.758 73.1076 99.117 73.757 98.6375C74.4112 98.1618 75.0541 97.9226 75.6872 97.9226C76.0604 97.9226 76.4136 97.978 76.7434 98.1009L78.1566 95.0831C77.5534 94.8205 76.9816 94.6829 76.4543 94.6829C74.957 94.6829 73.5736 95.6719 72.2912 97.6502L72.8375 95.0026H69.41L66.5662 108.635Z" fill="#231F20"/>
<path d="M77.0305 108.635H80.7037L81.8717 103.038C82.2113 101.408 82.5194 100.325 82.7907 99.7901C83.1688 99.0463 83.6825 98.4478 84.3417 97.9987C85.0035 97.5458 85.5937 97.317 86.1373 97.317C86.6353 97.317 87.0162 97.4502 87.2972 97.7176C87.57 97.99 87.7111 98.3581 87.7111 98.8343C87.7111 99.0545 87.5885 99.746 87.3541 100.899L85.738 108.635H89.4134L91.0171 100.924C91.2964 99.5878 91.4375 98.6799 91.4375 98.202C91.4375 97.1424 91.1169 96.2878 90.4735 95.6501C89.8247 95.0026 88.9485 94.6829 87.8261 94.6829C86.9907 94.6829 86.1921 94.8444 85.437 95.1657C84.6856 95.487 83.8659 96.0252 82.9984 96.7771L83.3587 95.0026H79.8791L77.0305 108.635Z" fill="#231F20"/>
<path d="M101.583 102.772C101.396 103.67 101.181 104.331 100.931 104.754C100.693 105.176 100.327 105.524 99.8346 105.79C99.3404 106.064 98.8191 106.199 98.2614 106.199C97.7634 106.199 97.3554 106.053 97.0467 105.756C96.7386 105.464 96.5867 105.099 96.5867 104.671C96.5867 104.15 96.789 103.735 97.1878 103.425C97.7498 103 98.9579 102.67 100.802 102.454C101.171 102.397 101.46 102.343 101.685 102.281L101.583 102.772ZM104.682 95.7444C103.847 95.0393 102.549 94.6827 100.802 94.6827C99.1153 94.6827 97.7693 95.0295 96.7478 95.7107C95.7257 96.3952 95.0097 97.3439 94.5995 98.56L98.1903 98.8694C98.3259 98.3736 98.582 97.9897 98.9639 97.7174C99.3404 97.4499 99.8634 97.3172 100.52 97.3172C101.143 97.3172 101.608 97.4499 101.923 97.7141C102.241 97.9778 102.401 98.3094 102.401 98.7014C102.401 99.0113 102.325 99.425 102.171 99.9344C101.583 100.142 100.414 100.315 98.6655 100.461C96.5867 100.621 95.1442 101.098 94.338 101.869C93.5319 102.653 93.1294 103.689 93.1294 104.989C93.1294 106.155 93.4961 107.111 94.2323 107.844C94.9646 108.589 95.8972 108.958 97.0239 108.958C97.7341 108.958 98.4377 108.798 99.1348 108.476C99.8346 108.153 100.452 107.692 100.994 107.094C101.026 107.626 101.117 108.14 101.258 108.635H104.837C104.628 107.93 104.524 107.282 104.524 106.7C104.524 106.046 104.708 104.909 105.065 103.285C105.505 101.317 105.756 100.102 105.829 99.6386C105.9 99.1776 105.936 98.74 105.936 98.3295C105.936 97.3118 105.518 96.4474 104.682 95.7444Z" fill="#231F20"/>
<path d="M110.291 97.7409L109.151 103.223C108.84 104.732 108.678 105.704 108.678 106.118C108.678 107.011 108.974 107.703 109.559 108.209C110.154 108.705 111.098 108.958 112.389 108.958C113.057 108.958 113.706 108.896 114.333 108.766L114.911 106.034C114.264 106.089 113.856 106.118 113.696 106.118C113.224 106.118 112.903 106.044 112.723 105.879C112.543 105.724 112.454 105.506 112.454 105.22C112.454 105.077 112.557 104.488 112.775 103.452L113.965 97.7409H116.215L116.781 95.0025H114.542L115.531 90.2824L111.313 92.8241L110.866 95.0025H109.077L108.509 97.7409H110.291Z" fill="#231F20"/>
<path d="M119.55 93.1553H123.225L123.922 89.8249H120.241L119.55 93.1553Z" fill="#231F20"/>
<path d="M116.324 108.635H119.995L122.843 95.0026H119.168L116.324 108.635Z" fill="#231F20"/>
<path d="M133.167 104.813C132.483 105.678 131.635 106.106 130.625 106.106C129.826 106.106 129.158 105.824 128.628 105.247C128.101 104.678 127.838 103.899 127.838 102.925C127.838 102.138 128.005 101.278 128.349 100.342C128.688 99.3995 129.167 98.6863 129.781 98.1932C130.398 97.7039 131.098 97.4549 131.895 97.4549C132.698 97.4549 133.356 97.7175 133.864 98.2492C134.369 98.7721 134.626 99.4751 134.626 100.347C134.626 102.096 134.141 103.585 133.167 104.813ZM136.588 96.348C135.457 95.246 133.887 94.6828 131.886 94.6828C129.569 94.6828 127.699 95.4363 126.28 96.9368C124.86 98.4389 124.151 100.451 124.151 102.977C124.151 104.056 124.391 105.06 124.879 106.004C125.367 106.944 126.103 107.671 127.092 108.189C128.082 108.7 129.22 108.958 130.498 108.958C132.866 108.958 134.753 108.154 136.161 106.545C137.568 104.939 138.278 103.028 138.278 100.823C138.278 98.9488 137.713 97.4532 136.588 96.348Z" fill="#231F20"/>
<path d="M139.686 108.635H143.357L144.523 103.038C144.864 101.408 145.172 100.325 145.448 99.7901C145.824 99.0463 146.338 98.4478 146.999 97.9987C147.656 97.5458 148.249 97.317 148.789 97.317C149.281 97.317 149.67 97.4502 149.945 97.7176C150.228 97.99 150.363 98.3581 150.363 98.8343C150.363 99.0545 150.245 99.746 150.007 100.899L148.391 108.635H152.063L153.669 100.924C153.949 99.5878 154.093 98.6799 154.093 98.202C154.093 97.1424 153.768 96.2878 153.123 95.6501C152.481 95.0026 151.596 94.6829 150.479 94.6829C149.641 94.6829 148.847 94.8444 148.089 95.1657C147.333 95.487 146.525 96.0252 145.651 96.7771L146.014 95.0026H142.522L139.686 108.635Z" fill="#231F20"/>
<path d="M164.235 102.772C164.045 103.67 163.826 104.331 163.589 104.754C163.342 105.176 162.979 105.524 162.483 105.79C161.996 106.064 161.469 106.199 160.917 106.199C160.414 106.199 160.007 106.053 159.702 105.756C159.394 105.464 159.239 105.099 159.239 104.671C159.239 104.15 159.443 103.735 159.84 103.425C160.406 103 161.61 102.67 163.454 102.454C163.821 102.397 164.113 102.343 164.334 102.281L164.235 102.772ZM167.338 95.7444C166.493 95.0393 165.204 94.6827 163.454 94.6827C161.773 94.6827 160.419 95.0295 159.396 95.7107C158.379 96.3952 157.665 97.3439 157.255 98.56L160.836 98.8694C160.977 98.3736 161.238 97.9897 161.613 97.7174C161.996 97.4499 162.513 97.3172 163.171 97.3172C163.792 97.3172 164.264 97.4499 164.578 97.7141C164.896 97.9778 165.05 98.3094 165.05 98.7014C165.05 99.0113 164.98 99.425 164.823 99.9344C164.235 100.142 163.062 100.315 161.319 100.461C159.239 100.621 157.801 101.098 156.993 101.869C156.184 102.653 155.782 103.689 155.782 104.989C155.782 106.155 156.146 107.111 156.884 107.844C157.617 108.589 158.549 108.958 159.674 108.958C160.379 108.958 161.086 108.798 161.787 108.476C162.488 108.153 163.107 107.692 163.647 107.094C163.682 107.626 163.772 108.14 163.91 108.635H167.482C167.28 107.93 167.183 107.282 167.183 106.7C167.183 106.046 167.357 104.909 167.721 103.285C168.15 101.317 168.408 100.102 168.482 99.6386C168.552 99.1776 168.587 98.74 168.587 98.3295C168.587 97.3118 168.17 96.4474 167.338 95.7444Z" fill="#231F20"/>
<path d="M173.889 108.635L177.809 89.8248H174.144L170.217 108.635H173.889Z" fill="#231F20"/>
<path d="M190.065 101.346L194.6 93.7759L195.686 101.346H190.065ZM197.405 89.8246H193.113L182.499 108.635H186.467L188.725 104.478H196.165L196.791 108.635H200.453L197.405 89.8246Z" fill="#231F20"/>
<path d="M206.008 93.1553H209.689L210.38 89.8249H206.702L206.008 93.1553Z" fill="#231F20"/>
<path d="M202.782 108.635H206.461L209.304 95.0026H205.625L202.782 108.635Z" fill="#231F20"/>
<path d="M209.866 108.635H213.538L214.438 104.364C214.801 102.626 215.16 101.354 215.523 100.554C215.896 99.758 216.404 99.117 217.061 98.6375C217.711 98.1618 218.353 97.9226 218.986 97.9226C219.364 97.9226 219.715 97.978 220.049 98.1009L221.456 95.0831C220.852 94.8205 220.284 94.6829 219.75 94.6829C218.257 94.6829 216.872 95.6719 215.594 97.6502L216.143 95.0026H212.709L209.866 108.635Z" fill="#231F20"/>
<path d="M230.982 103.316C230.605 104.34 230.143 105.072 229.575 105.508C229.012 105.953 228.43 106.17 227.823 106.17C227.123 106.17 226.516 105.877 226.002 105.291C225.481 104.707 225.224 103.883 225.224 102.819C225.224 102.096 225.378 101.25 225.697 100.276C226.013 99.3052 226.458 98.5669 227.033 98.0689C227.611 97.5644 228.247 97.317 228.944 97.317C229.703 97.317 230.319 97.5894 230.808 98.1292C231.295 98.6729 231.54 99.4552 231.54 100.476C231.54 101.345 231.351 102.296 230.982 103.316ZM233.811 96.1579C232.944 95.1723 231.798 94.683 230.37 94.683C229.629 94.683 228.932 94.8205 228.28 95.0831C227.634 95.3506 226.938 95.7877 226.194 96.4036L226.491 95.0026H223.004L219.085 113.831H222.765L224.235 106.764C225.16 108.226 226.519 108.958 228.325 108.958C230.069 108.958 231.588 108.231 232.866 106.786C234.36 105.092 235.112 103.016 235.112 100.564C235.112 98.6158 234.676 97.1441 233.811 96.1579Z" fill="#231F20"/>
<path d="M245.851 104.813C245.17 105.678 244.325 106.106 243.32 106.106C242.514 106.106 241.846 105.824 241.319 105.247C240.792 104.678 240.529 103.899 240.529 102.925C240.529 102.138 240.696 101.278 241.04 100.342C241.383 99.3995 241.861 98.6863 242.472 98.1932C243.092 97.7039 243.796 97.4549 244.588 97.4549C245.389 97.4549 246.041 97.7175 246.552 98.2492C247.059 98.7721 247.314 99.4751 247.314 100.347C247.314 102.096 246.825 103.585 245.851 104.813ZM249.273 96.348C248.145 95.246 246.581 94.6828 244.573 94.6828C242.257 94.6828 240.393 95.4363 238.973 96.9368C237.554 98.4389 236.837 100.451 236.837 102.977C236.837 104.056 237.085 105.06 237.569 106.004C238.052 106.944 238.794 107.671 239.783 108.189C240.776 108.7 241.913 108.958 243.195 108.958C245.556 108.958 247.442 108.154 248.855 106.545C250.263 104.939 250.965 103.028 250.965 100.823C250.965 98.9488 250.401 97.4532 249.273 96.348Z" fill="#231F20"/>
<path d="M252.119 108.635H255.795L256.69 104.364C257.048 102.626 257.413 101.354 257.779 100.554C258.146 99.758 258.656 99.117 259.31 98.6375C259.963 98.1618 260.606 97.9226 261.235 97.9226C261.609 97.9226 261.968 97.978 262.3 98.1009L263.709 95.0831C263.1 94.8205 262.537 94.6829 262.004 94.6829C260.514 94.6829 259.122 95.6719 257.844 97.6502L258.392 95.0026H254.963L252.119 108.635Z" fill="#231F20"/>
<path d="M265.231 97.7409L264.089 103.223C263.777 104.732 263.619 105.704 263.619 106.118C263.619 107.011 263.915 107.703 264.5 108.209C265.092 108.705 266.032 108.958 267.334 108.958C267.998 108.958 268.648 108.896 269.283 108.766L269.852 106.034C269.205 106.089 268.797 106.118 268.634 106.118C268.171 106.118 267.843 106.044 267.667 105.879C267.488 105.724 267.398 105.506 267.398 105.22C267.398 105.077 267.507 104.488 267.716 103.452L268.906 97.7409H271.165L271.725 95.0025H269.485L270.469 90.2824L266.26 92.8241L265.804 95.0025H264.015L263.45 97.7409H265.231Z" fill="#231F20"/>
<path d="M172.129 61.5719C172.129 61.5719 176.369 47.8701 182.607 40.4872C187.988 34.1205 195.414 29.2846 209.415 26.8224C225.239 24.04 240.458 23.3599 248.782 21.7577C256.299 20.311 261.466 17.1959 265.037 13.9992C268.015 11.3325 270.874 5.91227 271.721 0C271.721 0 267.461 6.87345 257.531 10.4311C247.504 14.0242 227.395 14.7538 221.942 15.5372C218.474 16.0352 185.551 17.8412 175.719 43.7079C172.407 52.4189 172.129 61.5719 172.129 61.5719Z" fill="#EB1C24"/>
<path d="M170.642 77.3731C170.642 77.3731 187.498 82.4704 208.742 78.8725C238.071 73.9046 252.137 57.6802 256.543 52.8933C263.5 45.3338 268.698 38.1287 268.698 38.1287C263.958 37.5279 258.402 38.2037 251.994 41.9131C246.435 45.1304 238.165 54.8842 230.657 60.455C226.208 63.7561 216.023 71.065 203.955 74.5744C187.561 79.3417 170.642 77.3731 170.642 77.3731Z" fill="#EB1C24"/>
<path d="M189.123 58.0875C189.123 58.0875 189.943 57.1932 190.683 56.5365C191.423 55.8797 192.426 55.1545 192.426 55.1545C192.426 55.1545 193.515 56.2897 195.357 57.3226C197.351 58.4404 200.229 59.4391 203.565 58.7497C209.985 57.4254 210.645 55.8183 213.571 53.7377C216.496 51.6544 224.522 41.6289 238.497 44.5592C238.497 44.5592 224.858 60.0719 210.551 66.412C188.919 75.9989 172.129 73.604 172.129 73.604C174.016 66.9818 177.052 57.9369 181.854 50.3301C186.165 43.4996 195.163 34.2493 209.888 31.5065C224.619 28.761 231.441 28.798 240.757 27.6243C252.686 26.121 260.503 22.6063 264.845 18.3516C269.187 14.0926 270.874 10.0299 270.874 10.0299C270.874 10.0299 268.688 18.58 265.869 23.0842C262.451 28.5468 256.43 34.5543 237.451 36.8017C227.186 38.0168 205.026 38.0532 192.876 47.3982C183.982 54.2379 178.584 69.1352 178.584 69.1352C178.584 69.1352 188.933 68.9688 197.902 64.805L189.123 58.0875Z" fill="#231F20"/>
<path d="M151.829 58.3017H157.323C158.796 58.3017 159.746 58.4355 160.191 58.7019C160.908 59.1411 161.265 59.806 161.265 60.6933C161.265 61.4446 161.013 62.1617 160.521 62.8527C160.023 63.5355 159.335 64.0416 158.458 64.3586C157.582 64.6826 155.8 64.8419 153.116 64.8419H150.467L151.829 58.3017ZM149.706 68.4893H151.743C152.926 68.4893 153.753 68.6502 154.228 68.9759C155.001 69.5163 155.727 70.5732 156.411 72.1427C157.671 75.0507 158.517 77.1905 158.95 78.5627H164.314C162.945 75.0969 161.703 72.4031 160.586 70.5014C160.023 69.5592 159.424 68.8019 158.782 68.2262C161.285 67.9076 163.158 67.0725 164.397 65.7292C165.63 64.3825 166.25 62.6814 166.25 60.6085C166.25 59.1602 165.932 57.9255 165.299 56.9089C164.664 55.8928 163.829 55.1915 162.797 54.8104C161.766 54.4254 160.319 54.2379 158.466 54.2379H147.686L142.604 78.5627H147.606L149.706 68.4893ZM120.415 67.0459C120.074 68.7068 119.878 69.7125 119.835 70.0654C119.756 70.5998 119.72 71.0923 119.72 71.5458C119.72 73.7247 120.469 75.5074 121.97 76.8959C123.471 78.2844 125.636 78.9775 128.461 78.9775C130.825 78.9775 132.777 78.5165 134.326 77.5847C135.87 76.6561 137.026 75.4508 137.784 73.9688C138.546 72.4863 139.22 70.3421 139.803 67.5417L142.571 54.2379H137.586L134.804 67.5281C134.36 69.6756 133.925 71.1935 133.494 72.0938C133.064 72.9881 132.459 73.6622 131.675 74.1162C130.89 74.5685 129.899 74.7963 128.694 74.7963C127.355 74.7963 126.34 74.482 125.639 73.8601C124.936 73.2338 124.587 72.4417 124.587 71.4745C124.587 71.2337 124.61 70.9776 124.653 70.6977L125.335 67.4433L128.083 54.2379H123.096L120.415 67.0459ZM117.997 54.2379H113.362L109.966 70.5193L103.391 54.2379H98.7236L93.654 78.5627H98.3086L101.722 62.2155L108.278 78.5627H112.93L117.997 54.2379ZM93.5037 54.2379H88.8692L85.4731 70.5193L78.9024 54.2379H74.2299L69.1625 78.5627H73.8182L77.231 62.2155L83.7876 78.5627H88.439L93.5037 54.2379ZM52.5584 69.1352L58.4189 59.3466L59.8278 69.1352H52.5584ZM61.2491 78.5627H65.9889L62.0471 54.2379H56.5007L42.7685 78.5627H47.9005L50.8197 73.186H60.4359L61.2491 78.5627ZM25.0186 78.5627L26.5788 71.1114L31.2958 66.9818L37.2926 78.5627H42.9388L34.9392 63.7812L45.8347 54.2379H39.1419L27.9172 64.5755L30.0714 54.2379H25.0669L20 78.5627H25.0186Z" fill="#231F20"/>
<path d="M27.4781 108.635H31.1557L32.3193 103.038C32.66 101.408 32.9709 100.325 33.2405 99.7901C33.6208 99.0463 34.1302 98.4478 34.7899 97.9987C35.4512 97.5458 36.0447 97.317 36.5817 97.317C37.0792 97.317 37.4655 97.4502 37.7448 97.7176C38.0177 97.99 38.162 98.3581 38.162 98.8343C38.162 99.0545 38.0394 99.746 37.7964 100.899L36.1901 108.635H39.8611L41.4647 100.924C41.7474 99.5878 41.889 98.6799 41.889 98.202C41.889 97.1424 41.5673 96.2878 40.9249 95.6501C40.2729 95.0026 39.3962 94.6829 38.2781 94.6829C37.4362 94.6829 36.6425 94.8444 35.8852 95.1657C35.1333 95.487 34.3174 96.0252 33.4472 96.7771L33.8063 95.0026H30.3241L27.4781 108.635Z" fill="#231F20"/>
<path d="M23.8711 108.635L27.7863 89.8248H23.9313L20.0004 108.635H23.8711Z" fill="#231F20"/>
<path d="M46.1514 97.7409L45.0117 103.223C44.6992 104.732 44.5391 105.704 44.5391 106.118C44.5391 107.011 44.8343 107.703 45.4196 108.209C46.0136 108.705 46.9543 108.958 48.252 108.958C48.9209 108.958 49.5659 108.896 50.2001 108.766L50.7713 106.034C50.1296 106.089 49.7216 106.118 49.5572 106.118C49.0869 106.118 48.763 106.044 48.5834 105.879C48.4066 105.724 48.3165 105.506 48.3165 105.22C48.3165 105.077 48.4234 104.488 48.635 103.452L49.8263 97.7409H52.0815L52.6473 95.0025H50.4051L51.3909 90.2824L47.1757 92.8241L46.7297 95.0025H44.9379L44.3721 97.7409H46.1514Z" fill="#231F20"/>
<path d="M57.8008 98.1784C58.404 97.6032 59.0816 97.3172 59.8427 97.3172C60.6044 97.3172 61.2082 97.5727 61.6617 98.074C62.1179 98.5769 62.3431 99.3358 62.3431 100.346C62.3431 100.432 62.3387 100.554 62.3268 100.722H56.5791C56.7912 99.5946 57.1953 98.7503 57.8008 98.1784ZM65.4266 102.966C65.597 102.254 65.687 101.452 65.687 100.563C65.687 98.7068 65.1922 97.2634 64.2087 96.2337C63.2252 95.2024 61.9053 94.6827 60.242 94.6827C57.6304 94.6827 55.6123 95.6683 54.2051 97.6385C53.1771 99.0901 52.6536 100.75 52.6536 102.617C52.6536 104.525 53.2292 106.058 54.3733 107.217C55.5158 108.377 57.0065 108.958 58.8315 108.958C60.1644 108.958 61.366 108.628 62.4364 107.964C63.5051 107.301 64.359 106.303 65.0051 104.978L61.7127 104.423C61.0286 105.691 60.0803 106.325 58.8565 106.325C58.1143 106.325 57.485 106.046 56.9669 105.496C56.4537 104.939 56.1901 104.204 56.1901 103.296C56.1901 103.223 56.1999 103.109 56.2064 102.966H65.4266Z" fill="#231F20"/>
<path d="M66.5662 108.635H70.2416L71.1411 104.364C71.4948 102.626 71.8604 101.354 72.2272 100.554C72.5939 99.758 73.1076 99.117 73.757 98.6375C74.4112 98.1618 75.0541 97.9226 75.6872 97.9226C76.0604 97.9226 76.4136 97.978 76.7434 98.1009L78.1566 95.0831C77.5534 94.8205 76.9816 94.6829 76.4543 94.6829C74.957 94.6829 73.5736 95.6719 72.2912 97.6502L72.8375 95.0026H69.41L66.5662 108.635Z" fill="#231F20"/>
<path d="M77.0305 108.635H80.7037L81.8717 103.038C82.2113 101.408 82.5194 100.325 82.7907 99.7901C83.1688 99.0463 83.6825 98.4478 84.3417 97.9987C85.0035 97.5458 85.5937 97.317 86.1373 97.317C86.6353 97.317 87.0162 97.4502 87.2972 97.7176C87.57 97.99 87.7111 98.3581 87.7111 98.8343C87.7111 99.0545 87.5885 99.746 87.3541 100.899L85.738 108.635H89.4134L91.0171 100.924C91.2964 99.5878 91.4375 98.6799 91.4375 98.202C91.4375 97.1424 91.1169 96.2878 90.4735 95.6501C89.8247 95.0026 88.9485 94.6829 87.8261 94.6829C86.9907 94.6829 86.1921 94.8444 85.437 95.1657C84.6856 95.487 83.8659 96.0252 82.9984 96.7771L83.3587 95.0026H79.8791L77.0305 108.635Z" fill="#231F20"/>
<path d="M101.583 102.772C101.396 103.67 101.181 104.331 100.931 104.754C100.693 105.176 100.327 105.524 99.8346 105.79C99.3404 106.064 98.8191 106.199 98.2614 106.199C97.7634 106.199 97.3554 106.053 97.0467 105.756C96.7386 105.464 96.5867 105.099 96.5867 104.671C96.5867 104.15 96.789 103.735 97.1878 103.425C97.7498 103 98.9579 102.67 100.802 102.454C101.171 102.397 101.46 102.343 101.685 102.281L101.583 102.772ZM104.682 95.7444C103.847 95.0393 102.549 94.6827 100.802 94.6827C99.1153 94.6827 97.7693 95.0295 96.7478 95.7107C95.7257 96.3952 95.0097 97.3439 94.5995 98.56L98.1903 98.8694C98.3259 98.3736 98.582 97.9897 98.9639 97.7174C99.3404 97.4499 99.8634 97.3172 100.52 97.3172C101.143 97.3172 101.608 97.4499 101.923 97.7141C102.241 97.9778 102.401 98.3094 102.401 98.7014C102.401 99.0113 102.325 99.425 102.171 99.9344C101.583 100.142 100.414 100.315 98.6655 100.461C96.5867 100.621 95.1442 101.098 94.338 101.869C93.5319 102.653 93.1294 103.689 93.1294 104.989C93.1294 106.155 93.4961 107.111 94.2323 107.844C94.9646 108.589 95.8972 108.958 97.0239 108.958C97.7341 108.958 98.4377 108.798 99.1348 108.476C99.8346 108.153 100.452 107.692 100.994 107.094C101.026 107.626 101.117 108.14 101.258 108.635H104.837C104.628 107.93 104.524 107.282 104.524 106.7C104.524 106.046 104.708 104.909 105.065 103.285C105.505 101.317 105.756 100.102 105.829 99.6386C105.9 99.1776 105.936 98.74 105.936 98.3295C105.936 97.3118 105.518 96.4474 104.682 95.7444Z" fill="#231F20"/>
<path d="M110.291 97.7409L109.151 103.223C108.84 104.732 108.678 105.704 108.678 106.118C108.678 107.011 108.974 107.703 109.559 108.209C110.154 108.705 111.098 108.958 112.389 108.958C113.057 108.958 113.706 108.896 114.333 108.766L114.911 106.034C114.264 106.089 113.856 106.118 113.696 106.118C113.224 106.118 112.903 106.044 112.723 105.879C112.543 105.724 112.454 105.506 112.454 105.22C112.454 105.077 112.557 104.488 112.775 103.452L113.965 97.7409H116.215L116.781 95.0025H114.542L115.531 90.2824L111.313 92.8241L110.866 95.0025H109.077L108.509 97.7409H110.291Z" fill="#231F20"/>
<path d="M119.55 93.1553H123.225L123.922 89.8249H120.241L119.55 93.1553Z" fill="#231F20"/>
<path d="M116.324 108.635H119.995L122.843 95.0026H119.168L116.324 108.635Z" fill="#231F20"/>
<path d="M133.167 104.813C132.483 105.678 131.635 106.106 130.625 106.106C129.826 106.106 129.158 105.824 128.628 105.247C128.101 104.678 127.838 103.899 127.838 102.925C127.838 102.138 128.005 101.278 128.349 100.342C128.688 99.3995 129.167 98.6863 129.781 98.1932C130.398 97.7039 131.098 97.4549 131.895 97.4549C132.698 97.4549 133.356 97.7175 133.864 98.2492C134.369 98.7721 134.626 99.4751 134.626 100.347C134.626 102.096 134.141 103.585 133.167 104.813ZM136.588 96.348C135.457 95.246 133.887 94.6828 131.886 94.6828C129.569 94.6828 127.699 95.4363 126.28 96.9368C124.86 98.4389 124.151 100.451 124.151 102.977C124.151 104.056 124.391 105.06 124.879 106.004C125.367 106.944 126.103 107.671 127.092 108.189C128.082 108.7 129.22 108.958 130.498 108.958C132.866 108.958 134.753 108.154 136.161 106.545C137.568 104.939 138.278 103.028 138.278 100.823C138.278 98.9488 137.713 97.4532 136.588 96.348Z" fill="#231F20"/>
<path d="M139.686 108.635H143.357L144.523 103.038C144.864 101.408 145.172 100.325 145.448 99.7901C145.824 99.0463 146.338 98.4478 146.999 97.9987C147.656 97.5458 148.249 97.317 148.789 97.317C149.281 97.317 149.67 97.4502 149.945 97.7176C150.228 97.99 150.363 98.3581 150.363 98.8343C150.363 99.0545 150.245 99.746 150.007 100.899L148.391 108.635H152.063L153.669 100.924C153.949 99.5878 154.093 98.6799 154.093 98.202C154.093 97.1424 153.768 96.2878 153.123 95.6501C152.481 95.0026 151.596 94.6829 150.479 94.6829C149.641 94.6829 148.847 94.8444 148.089 95.1657C147.333 95.487 146.525 96.0252 145.651 96.7771L146.014 95.0026H142.522L139.686 108.635Z" fill="#231F20"/>
<path d="M164.235 102.772C164.045 103.67 163.826 104.331 163.589 104.754C163.342 105.176 162.979 105.524 162.483 105.79C161.996 106.064 161.469 106.199 160.917 106.199C160.414 106.199 160.007 106.053 159.702 105.756C159.394 105.464 159.239 105.099 159.239 104.671C159.239 104.15 159.443 103.735 159.84 103.425C160.406 103 161.61 102.67 163.454 102.454C163.821 102.397 164.113 102.343 164.334 102.281L164.235 102.772ZM167.338 95.7444C166.493 95.0393 165.204 94.6827 163.454 94.6827C161.773 94.6827 160.419 95.0295 159.396 95.7107C158.379 96.3952 157.665 97.3439 157.255 98.56L160.836 98.8694C160.977 98.3736 161.238 97.9897 161.613 97.7174C161.996 97.4499 162.513 97.3172 163.171 97.3172C163.792 97.3172 164.264 97.4499 164.578 97.7141C164.896 97.9778 165.05 98.3094 165.05 98.7014C165.05 99.0113 164.98 99.425 164.823 99.9344C164.235 100.142 163.062 100.315 161.319 100.461C159.239 100.621 157.801 101.098 156.993 101.869C156.184 102.653 155.782 103.689 155.782 104.989C155.782 106.155 156.146 107.111 156.884 107.844C157.617 108.589 158.549 108.958 159.674 108.958C160.379 108.958 161.086 108.798 161.787 108.476C162.488 108.153 163.107 107.692 163.647 107.094C163.682 107.626 163.772 108.14 163.91 108.635H167.482C167.28 107.93 167.183 107.282 167.183 106.7C167.183 106.046 167.357 104.909 167.721 103.285C168.15 101.317 168.408 100.102 168.482 99.6386C168.552 99.1776 168.587 98.74 168.587 98.3295C168.587 97.3118 168.17 96.4474 167.338 95.7444Z" fill="#231F20"/>
<path d="M173.889 108.635L177.809 89.8248H174.144L170.217 108.635H173.889Z" fill="#231F20"/>
<path d="M190.065 101.346L194.6 93.7759L195.686 101.346H190.065ZM197.405 89.8246H193.113L182.499 108.635H186.467L188.725 104.478H196.165L196.791 108.635H200.453L197.405 89.8246Z" fill="#231F20"/>
<path d="M206.008 93.1553H209.689L210.38 89.8249H206.702L206.008 93.1553Z" fill="#231F20"/>
<path d="M202.782 108.635H206.461L209.304 95.0026H205.625L202.782 108.635Z" fill="#231F20"/>
<path d="M209.866 108.635H213.538L214.438 104.364C214.801 102.626 215.16 101.354 215.523 100.554C215.896 99.758 216.404 99.117 217.061 98.6375C217.711 98.1618 218.353 97.9226 218.986 97.9226C219.364 97.9226 219.715 97.978 220.049 98.1009L221.456 95.0831C220.852 94.8205 220.284 94.6829 219.75 94.6829C218.257 94.6829 216.872 95.6719 215.594 97.6502L216.143 95.0026H212.709L209.866 108.635Z" fill="#231F20"/>
<path d="M230.982 103.316C230.605 104.34 230.143 105.072 229.575 105.508C229.012 105.953 228.43 106.17 227.823 106.17C227.123 106.17 226.516 105.877 226.002 105.291C225.481 104.707 225.224 103.883 225.224 102.819C225.224 102.096 225.378 101.25 225.697 100.276C226.013 99.3052 226.458 98.5669 227.033 98.0689C227.611 97.5644 228.247 97.317 228.944 97.317C229.703 97.317 230.319 97.5894 230.808 98.1292C231.295 98.6729 231.54 99.4552 231.54 100.476C231.54 101.345 231.351 102.296 230.982 103.316ZM233.811 96.1579C232.944 95.1723 231.798 94.683 230.37 94.683C229.629 94.683 228.932 94.8205 228.28 95.0831C227.634 95.3506 226.938 95.7877 226.194 96.4036L226.491 95.0026H223.004L219.085 113.831H222.765L224.235 106.764C225.16 108.226 226.519 108.958 228.325 108.958C230.069 108.958 231.588 108.231 232.866 106.786C234.36 105.092 235.112 103.016 235.112 100.564C235.112 98.6158 234.676 97.1441 233.811 96.1579Z" fill="#231F20"/>
<path d="M245.851 104.813C245.17 105.678 244.325 106.106 243.32 106.106C242.514 106.106 241.846 105.824 241.319 105.247C240.792 104.678 240.529 103.899 240.529 102.925C240.529 102.138 240.696 101.278 241.04 100.342C241.383 99.3995 241.861 98.6863 242.472 98.1932C243.092 97.7039 243.796 97.4549 244.588 97.4549C245.389 97.4549 246.041 97.7175 246.552 98.2492C247.059 98.7721 247.314 99.4751 247.314 100.347C247.314 102.096 246.825 103.585 245.851 104.813ZM249.273 96.348C248.145 95.246 246.581 94.6828 244.573 94.6828C242.257 94.6828 240.393 95.4363 238.973 96.9368C237.554 98.4389 236.837 100.451 236.837 102.977C236.837 104.056 237.085 105.06 237.569 106.004C238.052 106.944 238.794 107.671 239.783 108.189C240.776 108.7 241.913 108.958 243.195 108.958C245.556 108.958 247.442 108.154 248.855 106.545C250.263 104.939 250.965 103.028 250.965 100.823C250.965 98.9488 250.401 97.4532 249.273 96.348Z" fill="#231F20"/>
<path d="M252.119 108.635H255.795L256.69 104.364C257.048 102.626 257.413 101.354 257.779 100.554C258.146 99.758 258.656 99.117 259.31 98.6375C259.963 98.1618 260.606 97.9226 261.235 97.9226C261.609 97.9226 261.968 97.978 262.3 98.1009L263.709 95.0831C263.1 94.8205 262.537 94.6829 262.004 94.6829C260.514 94.6829 259.122 95.6719 257.844 97.6502L258.392 95.0026H254.963L252.119 108.635Z" fill="#231F20"/>
<path d="M265.231 97.7409L264.089 103.223C263.777 104.732 263.619 105.704 263.619 106.118C263.619 107.011 263.915 107.703 264.5 108.209C265.092 108.705 266.032 108.958 267.334 108.958C267.998 108.958 268.648 108.896 269.283 108.766L269.852 106.034C269.205 106.089 268.797 106.118 268.634 106.118C268.171 106.118 267.843 106.044 267.667 105.879C267.488 105.724 267.398 105.506 267.398 105.22C267.398 105.077 267.507 104.488 267.716 103.452L268.906 97.7409H271.165L271.725 95.0025H269.485L270.469 90.2824L266.26 92.8241L265.804 95.0025H264.015L263.45 97.7409H265.231Z" fill="#231F20"/>
<path d="M172.129 61.5719C172.129 61.5719 176.369 47.8701 182.607 40.4872C187.988 34.1205 195.414 29.2846 209.415 26.8224C225.239 24.04 240.458 23.3599 248.782 21.7577C256.299 20.311 261.466 17.1959 265.037 13.9992C268.015 11.3325 270.874 5.91227 271.721 0C271.721 0 267.461 6.87345 257.531 10.4311C247.504 14.0242 227.395 14.7538 221.942 15.5372C218.474 16.0352 185.551 17.8412 175.719 43.7079C172.407 52.4189 172.129 61.5719 172.129 61.5719Z" fill="#EB1C24"/>
<path d="M170.642 77.3731C170.642 77.3731 187.498 82.4704 208.742 78.8725C238.071 73.9046 252.137 57.6802 256.543 52.8933C263.5 45.3338 268.698 38.1287 268.698 38.1287C263.958 37.5279 258.402 38.2037 251.994 41.9131C246.435 45.1304 238.165 54.8842 230.657 60.455C226.208 63.7561 216.023 71.065 203.955 74.5744C187.561 79.3417 170.642 77.3731 170.642 77.3731Z" fill="#EB1C24"/>
<path d="M189.123 58.0875C189.123 58.0875 189.943 57.1932 190.683 56.5365C191.423 55.8797 192.426 55.1545 192.426 55.1545C192.426 55.1545 193.515 56.2897 195.357 57.3226C197.351 58.4404 200.229 59.4391 203.565 58.7497C209.985 57.4254 210.645 55.8183 213.571 53.7377C216.496 51.6544 224.522 41.6289 238.497 44.5592C238.497 44.5592 224.858 60.0719 210.551 66.412C188.919 75.9989 172.129 73.604 172.129 73.604C174.016 66.9818 177.052 57.9369 181.854 50.3301C186.165 43.4996 195.163 34.2493 209.888 31.5065C224.619 28.761 231.441 28.798 240.757 27.6243C252.686 26.121 260.503 22.6063 264.845 18.3516C269.187 14.0926 270.874 10.0299 270.874 10.0299C270.874 10.0299 268.688 18.58 265.869 23.0842C262.451 28.5468 256.43 34.5543 237.451 36.8017C227.186 38.0168 205.026 38.0532 192.876 47.3982C183.982 54.2379 178.584 69.1352 178.584 69.1352C178.584 69.1352 188.933 68.9688 197.902 64.805L189.123 58.0875Z" fill="#231F20"/>
<path d="M151.829 58.3017H157.323C158.796 58.3017 159.746 58.4355 160.191 58.7019C160.908 59.1411 161.265 59.806 161.265 60.6933C161.265 61.4446 161.013 62.1617 160.521 62.8527C160.023 63.5355 159.335 64.0416 158.458 64.3586C157.582 64.6826 155.8 64.8419 153.116 64.8419H150.467L151.829 58.3017ZM149.706 68.4893H151.743C152.926 68.4893 153.753 68.6502 154.228 68.9759C155.001 69.5163 155.727 70.5732 156.411 72.1427C157.671 75.0507 158.517 77.1905 158.95 78.5627H164.314C162.945 75.0969 161.703 72.4031 160.586 70.5014C160.023 69.5592 159.424 68.8019 158.782 68.2262C161.285 67.9076 163.158 67.0725 164.397 65.7292C165.63 64.3825 166.25 62.6814 166.25 60.6085C166.25 59.1602 165.932 57.9255 165.299 56.9089C164.664 55.8928 163.829 55.1915 162.797 54.8104C161.766 54.4254 160.319 54.2379 158.466 54.2379H147.686L142.604 78.5627H147.606L149.706 68.4893ZM120.415 67.0459C120.074 68.7068 119.878 69.7125 119.835 70.0654C119.756 70.5998 119.72 71.0923 119.72 71.5458C119.72 73.7247 120.469 75.5074 121.97 76.8959C123.471 78.2844 125.636 78.9775 128.461 78.9775C130.825 78.9775 132.777 78.5165 134.326 77.5847C135.87 76.6561 137.026 75.4508 137.784 73.9688C138.546 72.4863 139.22 70.3421 139.803 67.5417L142.571 54.2379H137.586L134.804 67.5281C134.36 69.6756 133.925 71.1935 133.494 72.0938C133.064 72.9881 132.459 73.6622 131.675 74.1162C130.89 74.5685 129.899 74.7963 128.694 74.7963C127.355 74.7963 126.34 74.482 125.639 73.8601C124.936 73.2338 124.587 72.4417 124.587 71.4745C124.587 71.2337 124.61 70.9776 124.653 70.6977L125.335 67.4433L128.083 54.2379H123.096L120.415 67.0459ZM117.997 54.2379H113.362L109.966 70.5193L103.391 54.2379H98.7236L93.654 78.5627H98.3086L101.722 62.2155L108.278 78.5627H112.93L117.997 54.2379ZM93.5037 54.2379H88.8692L85.4731 70.5193L78.9024 54.2379H74.2299L69.1625 78.5627H73.8182L77.231 62.2155L83.7876 78.5627H88.439L93.5037 54.2379ZM52.5584 69.1352L58.4189 59.3466L59.8278 69.1352H52.5584ZM61.2491 78.5627H65.9889L62.0471 54.2379H56.5007L42.7685 78.5627H47.9005L50.8197 73.186H60.4359L61.2491 78.5627ZM25.0186 78.5627L26.5788 71.1114L31.2958 66.9818L37.2926 78.5627H42.9388L34.9392 63.7812L45.8347 54.2379H39.1419L27.9172 64.5755L30.0714 54.2379H25.0669L20 78.5627H25.0186Z" fill="#231F20"/>
</svg>
